#N canvas 189 23 684 906 10;
#X obj 88 919 throw~ todac;
#X obj 960 156 r curCustomDir;
#X obj 414 66 s callForCustomDir;
#X obj 413 47 bng 15 250 50 0 empty empty empty 17 7 0 10 -262144 -1
-1;
#X obj 918 179 pack s s;
#X msg 914 209 read /media/\$2\$1 cr;
#X obj 12 6 loadbang;
#X obj 1217 592 loadcustomsound;
#X msg 1216 570 bg_playground.wav;
#X obj 1223 619 tosymbol;
#X msg 1223 642 open \$1 \, start;
#X obj 1223 665 readsf~ 2;
#X obj 1216 549 loadbang;
#X obj 1222 771 *~;
#X obj 1320 652 r scope2;
#X obj 1321 673 mavg 60;
#X obj 1329 711 != 0;
#X obj 1330 747 mavg 120;
#X floatatom 1403 767 5 0 0 0 - - -, f 5;
#X obj 1403 787 > 0;
#X obj 1403 811 change;
#X obj 1406 834 sel 0 1;
#X obj 1405 744 mavg 250;
#X obj 1406 861 bng 15 250 50 0 empty empty empty 17 7 0 10 -262144
-1 -1;
#X text 1406 719 na ~4 sec \, begin de melodie overniewu;
#X obj 1407 880 s restartMelody;
#X obj 913 234 send readMIDIfile;
#X obj 40 583 loadcustomsound;
#X obj 46 610 tosymbol;
#X msg 47 711 open \$1 \, start;
#X obj 40 503 tosymbol;
#X obj 92 837 *~ 3;
#X obj 67 748 readsf~;
#X obj 87 802 *~;
#X obj 40 526 t s b;
#X obj 1220 817 throw~ todac;
#X obj 41 470 r curNote;
#X text 40 443 FIRSTCONTACT;
#X text 692 363 STROKING;
#X obj 1383 93 r curNote;
#X obj 1397 324 loadcustomsound;
#X obj 1403 351 tosymbol;
#X msg 1403 374 open \$1 \, start;
#X obj 1390 212 tosymbol;
#X obj 1403 397 readsf~;
#X obj 1417 430 *~;
#X obj 1582 349 line~;
#X obj 1390 235 t s b;
#X msg 1620 318 0 20;
#X obj 1521 240 delay 20;
#X obj 1412 531 throw~ todac;
#X obj 1420 471 *~;
#X obj 1488 457 mavg 60;
#X obj 1397 292 sprintf VIBRABOW/vibrabow%s.wav;
#X obj 1487 426 r holding;
#X text 1396 76 HOLDING;
#X obj 72 659 t s b;
#N canvas 0 22 450 300 env 0;
#X obj 99 102 line~;
#X msg 103 51 0 20;
#X obj 53 52 delay 20;
#X msg 50 73 1 10;
#X obj 138 46 delay 1000;
#X msg 138 69 0 50;
#X obj 44 5 inlet;
#X obj 61 160 outlet~;
#X connect 0 0 7 0;
#X connect 1 0 0 0;
#X connect 2 0 3 0;
#X connect 3 0 0 0;
#X connect 4 0 5 0;
#X connect 5 0 0 0;
#X connect 6 0 2 0;
#X connect 6 0 1 0;
#X connect 6 0 4 0;
#X restore 123 748 pd env;
#X msg 165 714 open \$1 \, start;
#X obj 185 751 readsf~;
#X obj 205 805 *~;
#X obj 190 662 t s b;
#N canvas 0 22 450 300 env 0;
#X obj 99 102 line~;
#X msg 103 51 0 20;
#X obj 53 52 delay 20;
#X msg 50 73 1 10;
#X obj 138 46 delay 1000;
#X msg 138 69 0 50;
#X obj 44 5 inlet;
#X obj 61 160 outlet~;
#X connect 0 0 7 0;
#X connect 1 0 0 0;
#X connect 2 0 3 0;
#X connect 3 0 0 0;
#X connect 4 0 5 0;
#X connect 5 0 0 0;
#X connect 6 0 2 0;
#X connect 6 0 1 0;
#X connect 6 0 4 0;
#X restore 241 751 pd env;
#X obj 248 615 cycle 4;
#X msg 279 710 open \$1 \, start;
#X obj 299 747 readsf~;
#X obj 319 801 *~;
#X obj 304 658 t s b;
#N canvas 0 22 450 300 env 0;
#X obj 99 102 line~;
#X msg 103 51 0 20;
#X obj 53 52 delay 20;
#X msg 50 73 1 10;
#X obj 138 46 delay 1000;
#X msg 138 69 0 50;
#X obj 44 5 inlet;
#X obj 61 160 outlet~;
#X connect 0 0 7 0;
#X connect 1 0 0 0;
#X connect 2 0 3 0;
#X connect 3 0 0 0;
#X connect 4 0 5 0;
#X connect 5 0 0 0;
#X connect 6 0 2 0;
#X connect 6 0 1 0;
#X connect 6 0 4 0;
#X restore 355 747 pd env;
#X msg 389 709 open \$1 \, start;
#X obj 409 746 readsf~;
#X obj 429 800 *~;
#X obj 414 657 t s b;
#N canvas 0 22 450 300 env 0;
#X obj 99 102 line~;
#X msg 103 51 0 20;
#X obj 53 52 delay 20;
#X msg 50 73 1 10;
#X obj 138 46 delay 1000;
#X msg 138 69 0 50;
#X obj 44 5 inlet;
#X obj 61 160 outlet~;
#X connect 0 0 7 0;
#X connect 1 0 0 0;
#X connect 2 0 3 0;
#X connect 3 0 0 0;
#X connect 4 0 5 0;
#X connect 5 0 0 0;
#X connect 6 0 2 0;
#X connect 6 0 1 0;
#X connect 6 0 4 0;
#X restore 465 746 pd env;
#X obj 1389 178 int;
#X obj 1385 151 t b f;
#X obj 1599 257 delay 6000;
#X obj 1606 283 delay 20;
#X obj 832 333 r curNote;
#X obj 623 602 loadcustomsound;
#X obj 629 629 tosymbol;
#X msg 647 663 open \$1 \, start;
#X obj 647 686 readsf~;
#X obj 661 719 *~;
#X obj 620 543 t s b;
#X obj 684 833 throw~ todac;
#X obj 683 810 *~;
#X obj 824 797 mavg 60;
#X obj 831 414 int;
#X obj 827 387 t b f;
#X obj 623 570 sprintf CELLO/cello%s.wav;
#X obj 825 367 - 12;
#X obj 823 765 r stroking;
#X msg 1575 315 4 10;
#X obj 206 844 r stroking;
#X obj 212 875 != 1;
#X obj 110 885 *~;
#X obj 205 898 mavg 60;
#X obj 898 799 tgl 15 0 empty empty empty 17 7 0 10 -262144 -1 -1 0
1;
#X obj 722 383 r strokingNote;
#X obj 751 462 gate 2;
#X obj 733 404 counter 1 2;
#X floatatom 734 432 5 0 0 0 - - -, f 5;
#X obj 764 689 line~;
#X msg 769 645 1 200;
#X obj 826 604 loadcustomsound;
#X obj 832 631 tosymbol;
#X msg 850 665 open \$1 \, start;
#X obj 850 688 readsf~;
#X obj 864 721 *~;
#X obj 823 545 t s b;
#X obj 826 572 sprintf CELLO/cello%s.wav;
#X obj 967 691 line~;
#X msg 972 647 1 200;
#X obj 930 515 t b;
#X msg 957 542 0 500;
#X obj 749 529 t b;
#X msg 776 556 0 500;
#X obj 817 513 tosymbol;
#X obj 623 511 tosymbol;
#X obj 1395 122 - 12;
#X obj 1073 185 loadbang;
#X msg 1072 204 symbol;
#X obj 13 48 s startBang;
#X obj 13 27 delay 1000;
#X obj 413 27 r startBang;
#X msg 676 74 90;
#X text 667 58 general bpm;
#N canvas 1647 71 450 300 calcBPM 0;
#X obj 31 24 inlet;
#X obj 42 274 outlet;
#X obj 50 131 /;
#X obj 43 77 t b f;
#X msg 47 103 60000;
#X connect 0 0 3 0;
#X connect 2 0 1 0;
#X connect 3 0 4 0;
#X connect 3 1 2 1;
#X connect 4 0 2 0;
#X restore 654 186 pd calcBPM;
#X obj 666 108 s curBPM;
#X obj 649 158 r curBPM;
#X floatatom 657 211 5 0 0 0 - - -, f 5;
#X obj 571 382 s strokingNote;
#X obj 653 265 t b f;
#X obj 537 185 r curLen;
#X obj 646 239 *;
#X obj 569 356 onebang 1;
#X obj 591 332 t b b;
#X obj 683 39 r startBang;
#X obj 597 282 delay;
#X obj 520 276 r stroking;
#X obj 518 314 spigot;
#X text 741 82 mee in patch?;
#X obj 1223 689 *~ 1;
#X text 936 122 temp stored away \, put on crdl;
#N canvas 601 212 659 479 convertmidi 0;
#X obj 22 20 inlet;
#X obj 38 224 outlet;
#X obj 260 98 r curCustomDir;
#X obj 218 121 pack s s;
#X msg 214 151 read /media/\$2\$1 cr;
#X obj 373 127 loadbang;
#X msg 372 146 symbol;
#X msg 93 154 write midi.txt;
#X obj 37 47 t b b a;
#X obj 102 110 pack s s;
#X obj 93 181 mseq/seq;
#X connect 0 0 8 0;
#X connect 2 0 3 1;
#X connect 2 0 9 1;
#X connect 3 0 4 0;
#X connect 4 0 10 0;
#X connect 5 0 6 0;
#X connect 6 0 3 1;
#X connect 6 0 9 1;
#X connect 7 0 10 0;
#X connect 8 0 1 0;
#X connect 8 1 9 0;
#X connect 8 2 3 0;
#X connect 9 0 7 0;
#X restore 159 105 pd convertmidi;
#X obj 174 71 tosymbol;
#X msg 164 33 imnotinlove.mid;
#X msg 270 31 britney.mid;
#X msg 89 62 kortjakje.mid;
#X obj 159 147 tosymbol;
#X msg 150 126 midi.txt;
#X obj 286 225 bng 15 250 50 0 empty empty done 17 7 1 10 -262144 -1
-1;
#N canvas 901 503 771 498 cmds 1;
#X obj 29 273 outlet;
#X msg 56 109 rewind;
#X msg 55 134 next;
#X msg 37 53 bang;
#X msg 37 79 tempo 1;
#X text 81 54 sequence automatically;
#X text 94 79 set relative tempo;
#X text 110 114 go to beginning (and stop);
#X text 98 134 single-step forward;
#X msg 53 189 clear;
#X text 108 188 empty the qlist;
#X msg 55 160 next 1;
#X msg 37 28 print;
#X text 85 27 print contents to Pd window;
#X text 112 158 single-step forward;
#X text 111 171 SUPRESSING MESSAGE-SENDING;
#X msg 237 83 tempo 0;
#X text 288 112 toggle tempo to play/stop;
#X obj 323 29 r isContinuous;
#X obj 323 52 sel 0 1;
#X msg 312 88 tempo 1;
#X obj 235 8 t b b;
#X obj 88 7 r startBang, f 18;
#X obj 313 156 r seqnext;
#X obj 280 7 r pauseNotes;
#X connect 1 0 0 0;
#X connect 2 0 0 0;
#X connect 3 0 0 0;
#X connect 4 0 0 0;
#X connect 9 0 0 0;
#X connect 11 0 0 0;
#X connect 12 0 0 0;
#X connect 16 0 0 0;
#X connect 18 0 19 0;
#X connect 19 1 20 0;
#X connect 20 0 0 0;
#X connect 21 0 3 0;
#X connect 21 1 16 0;
#X connect 22 0 21 0;
#X connect 23 0 2 0;
#X connect 24 0 16 0;
#X restore 238 151 pd cmds;
#X msg 158 168 open \$1;
#N canvas 1659 51 1091 767 c_seqplay 0;
#X obj 165 293 textfile;
#N canvas 347 55 911 724 get-command 0;
#X obj 57 120 moses 128;
#X floatatom 77 83 5 0 0 0 - - -, f 5;
#X obj 135 120 moses 144;
#X obj 135 177 - 128;
#X obj 230 179 - 144;
#X obj 57 27 inlet;
#X obj 385 397 outlet;
#X obj 230 119 moses 160;
#X text 255 435 Midi commands:;
#X text 266 508 176 + channel = cc;
#X text 266 531 192 + channel = pgm change;
#X text 271 551 224 + channel = pitch wheel;
#X obj 672 180 - 224;
#X obj 563 178 - 192;
#X obj 457 178 - 176;
#X text 263 489 160 + channel = polypressure;
#X obj 333 177 - 160;
#X obj 333 118 moses 176;
#X obj 457 118 moses 192;
#X obj 563 118 moses 224;
#X obj 672 120 moses 240;
#X msg 135 304 \$1 noteoff;
#X msg 230 304 \$1 noteon;
#X msg 332 305 \$1 polypressure;
#X msg 457 305 \$1 cc;
#X msg 563 300 \$1 pgm;
#X msg 672 301 \$1 pitchwheel;
#X text 261 451 128 + channel = note off;
#X text 262 470 144 + channel = note on;
#X connect 0 1 2 0;
#X connect 1 0 0 0;
#X connect 2 0 3 0;
#X connect 2 1 7 0;
#X connect 3 0 21 0;
#X connect 4 0 22 0;
#X connect 5 0 0 0;
#X connect 7 0 4 0;
#X connect 7 1 17 0;
#X connect 12 0 26 0;
#X connect 13 0 25 0;
#X connect 14 0 24 0;
#X connect 16 0 23 0;
#X connect 17 0 16 0;
#X connect 17 1 18 0;
#X connect 18 0 14 0;
#X connect 18 1 19 0;
#X connect 19 0 13 0;
#X connect 19 1 20 0;
#X connect 20 0 12 0;
#X connect 21 0 6 0;
#X connect 22 0 6 0;
#X connect 23 0 6 0;
#X connect 24 0 6 0;
#X connect 25 0 6 0;
#X connect 26 0 6 0;
#X restore 205 384 pd get-command;
#X obj 165 333 list split 1;
#X obj 205 353 list split 1;
#X obj 205 420 list;
#X obj 165 518 list;
#X obj 165 618 outlet;
#X obj 165 263 until;
#X msg 217 265 read \$1 \, rewind;
#X text 180 313 time <midicommand> <data>;
#X text 210 525 now we have: time RECEIVER channel <command> <data>
;
#X obj 165 415 -;
#X obj 165 390 t f f;
#X obj 165 225 t b a b;
#X msg 513 317 0;
#X obj 165 465 list append \$0-qlist;
#X text 339 460 append desired receiver name;
#X obj 165 546 list prepend add;
#X obj 165 570 list trim;
#X obj 165 593 qlist;
#X obj 217 618 outlet;
#X obj 47 598 r \$0-qlist;
#X obj 47 620 outlet;
#X obj 165 43 inlet;
#X obj 211 145 loadbang;
#X obj 211 169 list append \$1;
#X obj 211 191 select 0;
#X obj 165 72 list trim;
#X obj 165 95 route open;
#X obj 165 178 list;
#X obj 46 545 r \$0-qlist-ctl;
#X obj 232 116 s \$0-qlist-ctl;
#X obj 61 489 r qlistdirect;
#X connect 0 0 2 0;
#X connect 0 1 7 1;
#X connect 1 0 4 0;
#X connect 2 0 12 0;
#X connect 2 1 3 0;
#X connect 3 0 1 0;
#X connect 3 1 4 1;
#X connect 4 0 5 1;
#X connect 5 0 17 0;
#X connect 7 0 0 0;
#X connect 8 0 0 0;
#X connect 11 0 15 0;
#X connect 12 0 11 1;
#X connect 12 1 11 0;
#X connect 13 0 7 0;
#X connect 13 1 8 0;
#X connect 13 2 14 0;
#X connect 14 0 11 1;
#X connect 15 0 5 0;
#X connect 17 0 18 0;
#X connect 18 0 19 0;
#X connect 19 0 6 0;
#X connect 19 1 20 0;
#X connect 21 0 22 0;
#X connect 23 0 27 0;
#X connect 24 0 25 0;
#X connect 25 0 26 0;
#X connect 26 1 13 0;
#X connect 27 0 28 0;
#X connect 28 0 29 0;
#X connect 28 1 31 0;
#X connect 29 0 13 0;
#X connect 30 0 19 0;
#X connect 32 0 19 0;
#X restore 162 192 pd c_seqplay;
#X obj 77 255 route noteon noteoff;
#X obj 46 203 list split 1;
#X obj 80 227 list trim;
#X obj 75 304 poly 4 1;
#X obj 79 336 pack 0 0 0;
#X obj 83 373 route 1 2 3 4;
#X obj 152 435 *~ 0.5;
#X obj 40 551 sprintf samples/PIANO/Piano%s.wav;
#X obj 88 21 r startBang;
#X obj 393 240 s isContinuous;
#X obj 388 200 tgl 15 0 empty empty empty 17 7 0 10 -262144 -1 -1 0
1;
#X msg 93 279 stop;
#X msg 286 189 rewind \, bang;
#N canvas 2032 411 450 323 voice 0;
#X obj 19 27 inlet;
#X obj 14 63 unpack f f;
#X obj 14 98 mtof;
#X obj 20 139 osc~;
#X obj 19 175 *~;
#X obj 58 108 / 127;
#X obj 21 214 outlet~;
#X connect 0 0 1 0;
#X connect 1 0 2 0;
#X connect 1 1 5 0;
#X connect 2 0 3 0;
#X connect 3 0 4 0;
#X connect 4 0 6 0;
#X connect 5 0 4 1;
#X restore 84 412 pd voice;
#N canvas 2032 411 450 323 voice 0;
#X obj 19 27 inlet;
#X obj 14 63 unpack f f;
#X obj 14 98 mtof;
#X obj 20 139 osc~;
#X obj 19 175 *~;
#X obj 58 108 / 127;
#X obj 21 214 outlet~;
#X connect 0 0 1 0;
#X connect 1 0 2 0;
#X connect 1 1 5 0;
#X connect 2 0 3 0;
#X connect 3 0 4 0;
#X connect 4 0 6 0;
#X connect 5 0 4 1;
#X restore 152 411 pd voice;
#N canvas 2032 411 450 323 voice 0;
#X obj 19 27 inlet;
#X obj 14 63 unpack f f;
#X obj 14 98 mtof;
#X obj 20 139 osc~;
#X obj 19 175 *~;
#X obj 58 108 / 127;
#X obj 21 214 outlet~;
#X connect 0 0 1 0;
#X connect 1 0 2 0;
#X connect 1 1 5 0;
#X connect 2 0 3 0;
#X connect 3 0 4 0;
#X connect 4 0 6 0;
#X connect 5 0 4 1;
#X restore 218 411 pd voice;
#N canvas 2032 411 450 323 voice 0;
#X obj 19 27 inlet;
#X obj 14 63 unpack f f;
#X obj 14 98 mtof;
#X obj 20 139 osc~;
#X obj 19 175 *~;
#X obj 58 108 / 127;
#X obj 21 214 outlet~;
#X connect 0 0 1 0;
#X connect 1 0 2 0;
#X connect 1 1 5 0;
#X connect 2 0 3 0;
#X connect 3 0 4 0;
#X connect 4 0 6 0;
#X connect 5 0 4 1;
#X restore 302 413 pd voice;
#X obj 164 464 dac~;
#X obj 308 108 r firstContact;
#X obj 465 843 r isContinuous;
#X obj 462 867 != 1;
#X obj 467 896 tgl 15 0 empty empty empty 17 7 0 10 -262144 -1 -1 1
1;
#X floatatom 413 912 5 0 0 0 - - -, f 5;
#X obj 457 921 &&;
#X obj 389 883 == 0;
#X msg 303 135 next;
#X obj 609 990 pipe 50;
#X obj 601 1015 s seqnext;
#X obj 605 960 bng 15 250 50 0 empty empty empty 17 7 0 10 -262144
-1 -1;
#X obj 504 937 sel 1;
#X obj 214 248 unpack s f f;
#X obj 378 283 r isContinuous;
#X obj 375 307 != 1;
#X text 379 265 wanneer losse hits;
#X text 249 267 wanneer een ON;
#X obj 274 296 != 0;
#X obj 301 330 &&;
#X obj 312 354 sel 1;
#X obj 319 390 s waitForNoteOff;
#X msg 383 350 0;
#X text 426 389 wacht op off;
#X msg 281 372 1;
#X obj 389 459 r waitForNoteOff;
#X obj 292 471 == 0;
#X floatatom 382 480 5 0 0 0 - - -, f 5;
#X text 388 438 wanneer aan het wachten;
#X text 299 441 en off;
#X obj 326 494 &&;
#X obj 345 524 sel 1;
#X obj 342 555 s pauseNotes;
#X floatatom 237 470 5 0 0 0 - - -, f 5;
#X obj 426 309 sel 1;
#X obj 139 283 r pauseNotes;
#X obj 147 309 delay 50;
#X msg 423 174 0;
#X obj 415 101 bng 15 250 50 0 empty empty empty 17 7 0 10 -262144
-1 -1;
#X msg 373 156 1;
#X obj 417 140 delay 1;
#X connect 1 0 4 1;
#X connect 3 0 2 0;
#X connect 4 0 5 0;
#X connect 5 0 26 0;
#X connect 6 0 124 0;
#X connect 7 0 9 0;
#X connect 8 0 7 0;
#X connect 9 0 10 0;
#X connect 10 0 11 0;
#X connect 11 0 143 0;
#X connect 11 2 8 0;
#X connect 12 0 8 0;
#X connect 13 0 35 0;
#X connect 14 0 15 0;
#X connect 15 0 16 0;
#X connect 16 0 17 0;
#X connect 16 0 22 0;
#X connect 17 0 13 1;
#X connect 18 0 19 0;
#X connect 19 0 20 0;
#X connect 20 0 21 0;
#X connect 21 0 23 0;
#X connect 22 0 18 0;
#X connect 23 0 25 0;
#X connect 27 0 28 0;
#X connect 28 0 63 0;
#X connect 29 0 32 0;
#X connect 30 0 34 0;
#X connect 31 0 96 0;
#X connect 32 0 33 0;
#X connect 33 0 31 0;
#X connect 34 0 163 0;
#X connect 36 0 30 0;
#X connect 39 0 120 0;
#X connect 40 0 41 0;
#X connect 41 0 42 0;
#X connect 42 0 44 0;
#X connect 43 0 47 0;
#X connect 44 0 45 0;
#X connect 45 0 51 0;
#X connect 46 0 45 1;
#X connect 47 0 53 0;
#X connect 47 1 48 0;
#X connect 47 1 49 0;
#X connect 47 1 76 0;
#X connect 48 0 46 0;
#X connect 49 0 93 0;
#X connect 51 0 50 0;
#X connect 52 0 51 1;
#X connect 53 0 40 0;
#X connect 54 0 52 0;
#X connect 56 0 29 0;
#X connect 56 1 57 0;
#X connect 57 0 33 1;
#X connect 58 0 59 0;
#X connect 59 0 60 0;
#X connect 60 0 31 0;
#X connect 61 0 58 0;
#X connect 61 1 62 0;
#X connect 62 0 60 1;
#X connect 63 0 56 0;
#X connect 63 1 61 0;
#X connect 63 2 67 0;
#X connect 63 3 72 0;
#X connect 64 0 65 0;
#X connect 65 0 66 0;
#X connect 66 0 31 0;
#X connect 67 0 64 0;
#X connect 67 1 68 0;
#X connect 68 0 66 1;
#X connect 69 0 70 0;
#X connect 70 0 71 0;
#X connect 71 0 31 0;
#X connect 72 0 69 0;
#X connect 72 1 73 0;
#X connect 73 0 71 1;
#X connect 74 0 43 0;
#X connect 75 0 74 0;
#X connect 75 1 74 1;
#X connect 76 0 48 0;
#X connect 76 0 77 0;
#X connect 77 0 74 0;
#X connect 78 0 91 0;
#X connect 79 0 80 0;
#X connect 80 0 81 0;
#X connect 81 0 82 0;
#X connect 82 0 83 0;
#X connect 83 0 86 0;
#X connect 84 0 90 0;
#X connect 84 1 104 0;
#X connect 86 0 85 0;
#X connect 87 0 86 1;
#X connect 88 0 100 1;
#X connect 89 0 88 0;
#X connect 89 1 88 1;
#X connect 90 0 79 0;
#X connect 91 0 89 0;
#X connect 92 0 87 0;
#X connect 92 0 98 0;
#X connect 93 0 46 0;
#X connect 94 0 95 0;
#X connect 95 0 97 0;
#X connect 96 0 0 0;
#X connect 97 0 96 1;
#X connect 99 0 101 0;
#X connect 100 0 114 0;
#X connect 100 0 119 0;
#X connect 100 1 116 0;
#X connect 100 1 118 0;
#X connect 101 0 102 0;
#X connect 102 0 100 0;
#X connect 103 0 83 1;
#X connect 104 0 103 0;
#X connect 105 0 106 0;
#X connect 106 0 107 0;
#X connect 107 0 108 0;
#X connect 108 0 109 0;
#X connect 109 0 86 0;
#X connect 110 0 111 0;
#X connect 110 1 113 0;
#X connect 111 0 105 0;
#X connect 112 0 109 1;
#X connect 113 0 112 0;
#X connect 114 0 115 0;
#X connect 115 0 112 0;
#X connect 116 0 117 0;
#X connect 117 0 103 0;
#X connect 118 0 110 0;
#X connect 119 0 84 0;
#X connect 120 0 75 0;
#X connect 121 0 122 0;
#X connect 122 0 4 1;
#X connect 124 0 123 0;
#X connect 125 0 3 0;
#X connect 126 0 129 0;
#X connect 128 0 131 0;
#X connect 130 0 128 0;
#X connect 131 0 135 1;
#X connect 133 0 139 0;
#X connect 133 1 139 1;
#X connect 134 0 135 0;
#X connect 135 0 133 0;
#X connect 136 0 132 0;
#X connect 137 0 136 0;
#X connect 137 1 136 1;
#X connect 138 0 126 0;
#X connect 139 0 141 0;
#X connect 140 0 141 1;
#X connect 141 0 137 0;
#X connect 143 0 13 0;
#X connect 145 0 151 0;
#X connect 146 0 145 0;
#X connect 147 0 146 0;
#X connect 148 0 146 0;
#X connect 149 0 146 0;
#X connect 150 0 154 0;
#X connect 151 0 150 0;
#X connect 153 0 155 0;
#X connect 154 0 155 0;
#X connect 155 0 157 0;
#X connect 155 2 152 0;
#X connect 155 2 168 0;
#X connect 156 0 159 0;
#X connect 156 1 159 0;
#X connect 157 1 158 0;
#X connect 158 0 156 0;
#X connect 158 0 186 0;
#X connect 159 0 160 0;
#X connect 159 1 160 1;
#X connect 159 2 160 2;
#X connect 160 0 161 0;
#X connect 161 0 169 0;
#X connect 161 1 170 0;
#X connect 161 2 171 0;
#X connect 161 3 172 0;
#X connect 162 0 173 0;
#X connect 162 0 173 1;
#X connect 163 0 27 0;
#X connect 164 0 149 0;
#X connect 166 0 165 0;
#X connect 167 0 159 0;
#X connect 168 0 155 0;
#X connect 169 0 162 0;
#X connect 170 0 162 0;
#X connect 171 0 162 0;
#X connect 172 0 162 0;
#X connect 174 0 181 0;
#X connect 175 0 176 0;
#X connect 176 0 177 0;
#X connect 177 0 179 1;
#X connect 178 0 179 0;
#X connect 179 0 185 0;
#X connect 180 0 178 0;
#X connect 181 0 155 0;
#X connect 182 0 183 0;
#X connect 184 0 182 0;
#X connect 185 0 184 0;
#X connect 186 2 191 0;
#X connect 186 2 199 0;
#X connect 187 0 188 0;
#X connect 187 0 207 0;
#X connect 188 0 192 1;
#X connect 191 0 192 0;
#X connect 192 0 193 0;
#X connect 193 0 197 0;
#X connect 195 0 194 0;
#X connect 197 0 194 0;
#X connect 198 0 200 0;
#X connect 199 0 203 0;
#X connect 200 0 203 1;
#X connect 203 0 204 0;
#X connect 203 0 206 0;
#X connect 204 0 205 0;
#X connect 207 0 195 0;
#X connect 208 0 209 0;
#X connect 209 0 167 0;
#X connect 210 0 166 0;
#X connect 211 0 212 0;
#X connect 211 0 213 0;
#X connect 212 0 166 0;
#X connect 213 0 210 0;
