#N canvas -3 51 450 300 10;
#X obj 412 149 s callForCustomDir;
#X obj 411 130 bng 15 250 50 0 empty empty empty 17 7 0 10 -262144
-1 -1;
#X obj 411 110 r startBang;
#N canvas 255 488 659 479 convertmidi 0;
#X obj 22 20 inlet;
#X obj 38 224 outlet;
#X obj 260 98 r curCustomDir;
#X obj 218 121 pack s s;
#X msg 214 151 read /media/\$2\$1 cr;
#X obj 373 127 loadbang;
#X msg 372 146 symbol;
#X msg 93 154 write midi.txt;
#X obj 37 47 t b b a;
#X obj 102 110 pack s s;
#X obj 93 181 mseq/seq;
#X connect 0 0 8 0;
#X connect 2 0 3 1;
#X connect 2 0 9 1;
#X connect 3 0 4 0;
#X connect 4 0 10 0;
#X connect 5 0 6 0;
#X connect 6 0 3 1;
#X connect 6 0 9 1;
#X connect 7 0 10 0;
#X connect 8 0 1 0;
#X connect 8 1 9 0;
#X connect 8 2 3 0;
#X connect 9 0 7 0;
#X restore 157 188 pd convertmidi;
#X obj 172 154 tosymbol;
#X msg 87 145 kortjakje.mid;
#X obj 157 230 tosymbol;
#X msg 148 209 midi.txt;
#X obj 284 308 bng 15 250 50 0 empty empty done 17 7 1 10 -262144 -1
-1;
#N canvas 1790 795 771 498 cmds 1;
#X obj 29 273 outlet;
#X msg 56 109 rewind;
#X msg 55 134 next;
#X msg 37 53 bang;
#X msg 37 79 tempo 1;
#X text 81 54 sequence automatically;
#X text 94 79 set relative tempo;
#X text 110 114 go to beginning (and stop);
#X text 98 134 single-step forward;
#X msg 53 189 clear;
#X text 108 188 empty the qlist;
#X msg 55 160 next 1;
#X msg 37 28 print;
#X text 85 27 print contents to Pd window;
#X text 112 158 single-step forward;
#X text 111 171 SUPRESSING MESSAGE-SENDING;
#X text 288 112 toggle tempo to play/stop;
#X obj 323 29 r isContinuous;
#X obj 323 52 sel 0 1;
#X msg 340 78 tempo 1;
#X obj 88 7 r startBang;
#X obj 278 7 r pauseNotes;
#X msg 237 82 tempo 0;
#X obj 486 30 r sendSingleNote;
#X obj 485 58 t b b;
#X obj 527 105 r skipToNext;
#X obj 470 150 delay 20;
#X connect 1 0 0 0;
#X connect 2 0 0 0;
#X connect 3 0 0 0;
#X connect 4 0 0 0;
#X connect 9 0 0 0;
#X connect 11 0 0 0;
#X connect 12 0 0 0;
#X connect 17 0 18 0;
#X connect 18 1 19 0;
#X connect 19 0 0 0;
#X connect 20 0 22 0;
#X connect 21 0 22 0;
#X connect 22 0 0 0;
#X connect 23 0 24 0;
#X connect 24 1 2 0;
#X connect 25 0 26 0;
#X connect 26 0 2 0;
#X restore 236 234 pd cmds;
#X msg 156 251 open \$1;
#N canvas 1405 193 1091 767 c_seqplay 0;
#X obj 165 293 textfile;
#N canvas 347 55 911 724 get-command 0;
#X obj 57 120 moses 128;
#X floatatom 77 83 5 0 0 0 - - -;
#X obj 135 120 moses 144;
#X obj 135 177 - 128;
#X obj 230 179 - 144;
#X obj 57 27 inlet;
#X obj 385 397 outlet;
#X obj 230 119 moses 160;
#X text 255 435 Midi commands:;
#X text 266 508 176 + channel = cc;
#X text 266 531 192 + channel = pgm change;
#X text 271 551 224 + channel = pitch wheel;
#X obj 672 180 - 224;
#X obj 563 178 - 192;
#X obj 457 178 - 176;
#X text 263 489 160 + channel = polypressure;
#X obj 333 177 - 160;
#X obj 333 118 moses 176;
#X obj 457 118 moses 192;
#X obj 563 118 moses 224;
#X obj 672 120 moses 240;
#X msg 135 304 \$1 noteoff;
#X msg 230 304 \$1 noteon;
#X msg 332 305 \$1 polypressure;
#X msg 457 305 \$1 cc;
#X msg 563 300 \$1 pgm;
#X msg 672 301 \$1 pitchwheel;
#X text 261 451 128 + channel = note off;
#X text 262 470 144 + channel = note on;
#X connect 0 1 2 0;
#X connect 1 0 0 0;
#X connect 2 0 3 0;
#X connect 2 1 7 0;
#X connect 3 0 21 0;
#X connect 4 0 22 0;
#X connect 5 0 0 0;
#X connect 7 0 4 0;
#X connect 7 1 17 0;
#X connect 12 0 26 0;
#X connect 13 0 25 0;
#X connect 14 0 24 0;
#X connect 16 0 23 0;
#X connect 17 0 16 0;
#X connect 17 1 18 0;
#X connect 18 0 14 0;
#X connect 18 1 19 0;
#X connect 19 0 13 0;
#X connect 19 1 20 0;
#X connect 20 0 12 0;
#X connect 21 0 6 0;
#X connect 22 0 6 0;
#X connect 23 0 6 0;
#X connect 24 0 6 0;
#X connect 25 0 6 0;
#X connect 26 0 6 0;
#X restore 205 384 pd get-command;
#X obj 165 333 list split 1;
#X obj 205 353 list split 1;
#X obj 205 420 list;
#X obj 165 518 list;
#X obj 165 618 outlet;
#X obj 165 263 until;
#X msg 217 265 read \$1 \, rewind;
#X text 180 313 time <midicommand> <data>;
#X text 210 525 now we have: time RECEIVER channel <command> <data>
;
#X obj 165 415 -;
#X obj 165 390 t f f;
#X obj 165 225 t b a b;
#X msg 513 317 0;
#X obj 165 465 list append \$0-qlist;
#X text 339 460 append desired receiver name;
#X obj 165 546 list prepend add;
#X obj 165 570 list trim;
#X obj 165 593 qlist;
#X obj 217 618 outlet;
#X obj 47 598 r \$0-qlist;
#X obj 47 620 outlet;
#X obj 165 43 inlet;
#X obj 211 145 loadbang;
#X obj 211 169 list append \$1;
#X obj 211 191 select 0;
#X obj 165 72 list trim;
#X obj 165 95 route open;
#X obj 165 178 list;
#X obj 46 545 r \$0-qlist-ctl;
#X obj 232 116 s \$0-qlist-ctl;
#X obj 61 489 r qlistdirect;
#X connect 0 0 2 0;
#X connect 0 1 7 1;
#X connect 1 0 4 0;
#X connect 2 0 12 0;
#X connect 2 1 3 0;
#X connect 3 0 1 0;
#X connect 3 1 4 1;
#X connect 4 0 5 1;
#X connect 5 0 17 0;
#X connect 7 0 0 0;
#X connect 8 0 0 0;
#X connect 11 0 15 0;
#X connect 12 0 11 1;
#X connect 12 1 11 0;
#X connect 13 0 7 0;
#X connect 13 1 8 0;
#X connect 13 2 14 0;
#X connect 14 0 11 1;
#X connect 15 0 5 0;
#X connect 17 0 18 0;
#X connect 18 0 19 0;
#X connect 19 0 6 0;
#X connect 19 1 20 0;
#X connect 21 0 22 0;
#X connect 23 0 27 0;
#X connect 24 0 25 0;
#X connect 25 0 26 0;
#X connect 26 1 13 0;
#X connect 27 0 28 0;
#X connect 28 0 29 0;
#X connect 28 1 31 0;
#X connect 29 0 13 0;
#X connect 30 0 19 0;
#X connect 32 0 19 0;
#X restore 160 275 pd c_seqplay;
#X obj 66 414 route noteon noteoff;
#X obj 35 362 list split 1;
#X obj 69 386 list trim;
#X obj 86 104 r startBang;
#X msg 284 272 rewind \, bang;
#X obj 306 191 r firstContact;
#X msg 301 218 next;
#X obj 563 126 loadbang;
#X obj 557 159 s startBang;
#X obj 450 324 s isContinuous;
#X obj 451 273 tgl 15 0 empty empty empty 17 7 0 10 -262144 -1 -1 0
1;
#X obj 227 456 r isContinuous;
#X obj 225 477 == 0;
#X obj 298 549 s pauseNotes;
#X obj 549 370 s sendSingleNote;
#X obj 218 546 s skipToNext;
#X obj 58 496 s curNote;
#X obj 552 217 r firstContact;
#X obj 570 276 bng 15 250 50 0 empty empty empty 17 7 0 10 -262144
-1 -1;
#X obj 652 227 r tapping;
#X obj 464 219 r stroking;
#X obj 432 464 r isContinuous;
#X obj 391 505 > 0;
#X obj 416 525 &&;
#X obj 417 545 sel 1;
#X obj 437 491 == 0;
#X obj 389 453 t f a;
#X obj 203 514 spigot;
#X obj 165 449 t a b;
#X obj 296 524 bng 15 250 50 0 empty empty empty 17 7 0 10 -262144
-1 -1;
#X obj 655 318 onebang 1;
#X obj 656 277 t b b;
#X obj 712 288 delay 20;
#X connect 1 0 0 0;
#X connect 2 0 1 0;
#X connect 3 0 7 0;
#X connect 4 0 3 0;
#X connect 5 0 4 0;
#X connect 6 0 10 0;
#X connect 7 0 6 0;
#X connect 9 0 11 0;
#X connect 10 0 11 0;
#X connect 11 0 13 0;
#X connect 11 2 8 0;
#X connect 11 2 16 0;
#X connect 12 0 28 0;
#X connect 12 1 38 0;
#X connect 12 1 40 0;
#X connect 13 1 14 0;
#X connect 14 0 12 0;
#X connect 15 0 5 0;
#X connect 16 0 11 0;
#X connect 17 0 18 0;
#X connect 18 0 11 0;
#X connect 19 0 20 0;
#X connect 22 0 21 0;
#X connect 23 0 24 0;
#X connect 24 0 39 1;
#X connect 29 0 30 0;
#X connect 30 0 43 0;
#X connect 31 0 30 0;
#X connect 33 0 37 0;
#X connect 34 0 35 0;
#X connect 35 0 36 0;
#X connect 37 0 35 1;
#X connect 38 0 34 0;
#X connect 39 0 27 0;
#X connect 39 0 41 0;
#X connect 40 1 39 0;
#X connect 41 0 25 0;
#X connect 42 0 26 0;
#X connect 43 0 44 0;
#X connect 43 1 42 0;
#X connect 44 0 42 1;
